Coordinates
version=1
nRows=60
nColumns=12
inDegrees=yes

Units are S.I. units (second, meters, Newtons, ...)
Angles are in degrees

endheader
time	SC_y	SC_z	SC_x	AC_y	AC_z	AC_x	GH_y	GH_z	GH_yy	EL_x	PS_y
       0.0              -34.99          34.83           49.7          41.44         -2.406         -8.385         -93.42          7.892         -128.5          44.74          105.2
    0.0128              -34.99          34.82           49.7          41.44         -2.405         -8.385         -93.42          7.901         -128.5          44.75          105.2
    0.0256              -34.99          34.82          49.71          41.44         -2.403         -8.386         -93.43          7.911         -128.4          44.76          105.2
    0.0384              -34.99          34.81          49.71          41.44         -2.401         -8.386         -93.43          7.921         -128.4          44.77          105.2
   0.05121               -35.0          34.81          49.72          41.43           -2.4         -8.386         -93.44          7.932         -128.3          44.78          105.2
   0.06401               -35.0          34.81          49.72          41.43         -2.398         -8.386         -93.44          7.944         -128.3          44.79          105.2
   0.07681               -35.0           34.8          49.73          41.43         -2.396         -8.386         -93.45          7.957         -128.3           44.8          105.2
   0.08961               -35.0          34.79          49.73          41.43         -2.394         -8.386         -93.45           7.97         -128.2          44.81          105.2
    0.1024               -35.0          34.79          49.74          41.43         -2.392         -8.386         -93.46          7.985         -128.1          44.83          105.2
    0.1152               -35.0          34.78          49.74          41.42         -2.389         -8.386         -93.46            8.0         -128.1          44.84          105.2
     0.128               -35.0          34.78          49.75          41.42         -2.387         -8.386         -93.47          8.017         -128.0          44.85          105.2
    0.1408               -35.0          34.77          49.76          41.42         -2.384         -8.386         -93.48          8.035         -128.0          44.87          105.2
    0.1536              -35.01          34.76          49.77          41.41         -2.381         -8.386         -93.49          8.054         -127.9          44.89          105.2
    0.1664              -35.01          34.75          49.78          41.41         -2.378         -8.386         -93.49          8.075         -127.8          44.91          105.2
    0.1792              -35.01          34.74          49.79          41.41         -2.374         -8.387          -93.5          8.097         -127.7          44.93          105.2
     0.192              -35.01          34.73           49.8           41.4         -2.371         -8.387         -93.51          8.122         -127.6          44.95          105.2
    0.2048              -35.02          34.72          49.81           41.4         -2.367         -8.387         -93.52          8.148         -127.5          44.97          105.2
    0.2176              -35.02          34.71          49.82          41.39         -2.362         -8.387         -93.54          8.177         -127.4           45.0          105.2
    0.2304              -35.02           34.7          49.83          41.39         -2.357         -8.387         -93.55          8.209         -127.3          45.03          105.2
    0.2432              -35.02          34.68          49.85          41.38         -2.352         -8.387         -93.56          8.244         -127.1          45.06          105.2
     0.256              -35.03          34.67          49.86          41.37         -2.346         -8.387         -93.58          8.282         -127.0          45.09          105.2
    0.2688              -35.03          34.65          49.88          41.37          -2.34         -8.388          -93.6          8.324         -126.8          45.13          105.2
    0.2816              -35.04          34.63           49.9          41.36         -2.333         -8.388         -93.61           8.37         -126.7          45.17          105.2
    0.2944              -35.04          34.61          49.92          41.35         -2.325         -8.388         -93.64          8.421         -126.5          45.22          105.2
    0.3072              -35.05          34.59          49.94          41.34         -2.316         -8.388         -93.66          8.478         -126.2          45.27          105.2
      0.32              -35.05          34.56          49.97          41.33         -2.306         -8.389         -93.68          8.542         -126.0          45.32          105.2
    0.3328              -35.06          34.53           50.0          41.32         -2.295         -8.389         -93.71          8.613         -125.7          45.39          105.2
    0.3456              -35.07           34.5          50.03           41.3         -2.283          -8.39         -93.75          8.693         -125.4          45.46          105.2
    0.3584              -35.07          34.46          50.07          41.29         -2.269          -8.39         -93.78          8.784         -125.0          45.54          105.2
    0.3712              -35.08          34.42          50.11          41.27         -2.253         -8.391         -93.82          8.887         -124.6          45.63          105.2
     0.384              -35.09          34.37          50.16          41.25         -2.235         -8.391         -93.87          9.004         -124.2          45.74          105.2
    0.3968              -35.11          34.32          50.22          41.23         -2.215         -8.392         -93.93          9.139         -123.7          45.86          105.2
    0.4097              -35.12          34.25          50.28           41.2         -2.191         -8.393         -93.99          9.294         -123.1           46.0          105.2
    0.4225              -35.14          34.18          50.36          41.17         -2.163         -8.394         -94.06          9.475         -122.4          46.16          105.2
    0.4353              -35.16          34.09          50.45          41.13          -2.13         -8.395         -94.15          9.686         -121.5          46.35          105.2
    0.4481              -35.18          33.99          50.55          41.09         -2.092         -8.396         -94.25          9.935         -120.6          46.57          105.2
    0.4609              -35.21          33.87          50.67          41.04         -2.047         -8.397         -94.37          10.23         -119.4          46.84          105.2
    0.4737              -35.24          33.73          50.82          40.98         -1.992         -8.399         -94.51          10.59         -118.1          47.16          105.3
    0.4865              -35.28          33.55           51.0           40.9         -1.926         -8.401         -94.69          11.02         -116.4          47.54          105.3
    0.4993              -35.33          33.34          51.22          40.81         -1.846         -8.404          -94.9          11.54         -114.4          48.01          105.3
    0.5121              -35.39          33.07          51.49           40.7         -1.746         -8.407         -95.16          12.19         -111.8          48.59          105.3
    0.5249              -35.46          32.74          51.82          40.56         -1.622         -8.412         -95.49           13.0         -108.7          49.31          105.3
    0.5377              -35.56          32.33          52.24          40.38         -1.466         -8.417         -95.91          14.01         -104.8          50.22          105.4
    0.5505              -35.67           31.8          52.78          40.16         -1.268         -8.423         -96.43          15.31         -99.76          51.38          105.4
    0.5633              -35.83          31.12          53.47          39.87         -1.014         -8.432          -97.1          16.96         -93.35          52.86          105.5
    0.5761              -36.02          30.25          54.35          39.51        -0.6876         -8.443         -97.96          19.08         -85.11          54.77          105.6
    0.5889              -36.27          29.15          55.48          39.04        -0.2711         -8.457         -99.07           21.8         -74.59          57.19          105.7
    0.6017              -36.59          27.75           56.9          38.45         0.2527         -8.474         -100.5          25.21         -61.37          60.25          105.8
    0.6145              -36.97          26.05          58.63          37.73         0.8909         -8.496         -102.1          29.37         -45.25          63.97          106.0
    0.6273              -37.41          24.09          60.63           36.9          1.631          -8.52         -104.1          34.18         -26.57          68.29          106.1
    0.6401              -37.89          21.95           62.8          35.99          2.432         -8.547         -106.2           39.4         -6.342          72.96          106.3
    0.6529              -38.37          19.82          64.97          35.09          3.233         -8.574         -108.3          44.62          13.89          77.63          106.5
    0.6657              -38.82          17.85          66.97          34.26          3.972         -8.599         -110.3          49.44          32.57          81.95          106.7
    0.6785               -39.2          16.16           68.7          33.54          4.611          -8.62         -112.0          53.59          48.68          85.67          106.9
    0.6913              -39.51          14.76          70.12          32.95          5.134         -8.637         -113.4           57.0          61.91          88.72          107.0
    0.7041              -39.76          13.65          71.25          32.48          5.551         -8.651         -114.5          59.72          72.43          91.15          107.1
    0.7169              -39.96          12.79          72.13          32.12          5.877         -8.662         -115.3          61.84          80.66          93.06          107.2
    0.7297              -40.11          12.11          72.82          31.83          6.131         -8.671         -116.0           63.5          87.08          94.54          107.3
    0.7425              -40.23          11.58          73.36          31.61           6.33         -8.677         -116.5          64.79          92.09           95.7          107.3
    0.7553              -40.33          11.17          73.78          31.43          6.486         -8.683         -116.9          65.81          96.03          96.61          107.3
